<svg id="Capa_1" enable-background="new 0 0 512 512" height="512" viewBox="0 0 512 512" width="512" xmlns="http://www.w3.org/2000/svg"><g><g><path d="m91.316 369.533h-26.777c-30.418 0-55.166 24.748-55.166 55.168v72.299c0 8.284 6.716 15 15 15h107.109c8.284 0 15-6.716 15-15v-72.299c0-30.42-24.748-55.168-55.166-55.168z" fill="#7ed8f6"/><path d="m501.892 74.565c-1.764-5.43-6.459-9.388-12.109-10.208l-53.254-7.737-23.818-48.259c-2.528-5.12-7.742-8.361-13.451-8.361-5.71 0-10.924 3.241-13.451 8.361l-23.817 48.259-53.254 7.737c-5.65.82-10.345 4.778-12.109 10.208-1.765 5.43-.293 11.391 3.795 15.377l38.535 37.565-9.097 53.038c-.966 5.628 1.349 11.315 5.968 14.671 4.618 3.357 10.742 3.799 15.796 1.143l47.634-25.04 47.636 25.04c2.194 1.153 4.591 1.723 6.978 1.723h.057c8.269-.018 14.965-6.727 14.965-15 0-1.151-.129-2.273-.375-3.352l-8.959-52.223 38.537-37.565c4.086-3.985 5.558-9.946 3.793-15.377z" fill="#f2d231"/></g><path d="m198.426 321.334h-26.776c-30.42 0-55.168 24.747-55.168 55.166v120.5c0 8.284 6.716 15 15 15h107.111c8.284 0 15-6.716 15-15v-120.5c.001-30.419-24.747-55.166-55.167-55.166z" fill="#9ce0f6"/><path d="m305.537 273.135h-26.777c-30.418 0-55.166 24.747-55.166 55.166v168.699c0 8.284 6.716 15 15 15h107.109c8.284 0 15-6.716 15-15v-168.699c0-30.419-24.748-55.166-55.166-55.166z" fill="#c1eaf8"/><path d="m412.65 232.35h-26.779c-30.418 0-55.166 24.747-55.166 55.166v209.484c0 8.284 6.716 15 15 15h107.109c8.284 0 15-6.716 15-15v-209.484c0-30.419-24.746-55.166-55.164-55.166z" fill="#e4f4f9"/><path d="m501.892 74.565c-1.764-5.43-6.459-9.388-12.109-10.208l-53.254-7.737-23.818-48.259c-2.527-5.12-7.74-8.36-13.45-8.361v171.319l47.635 25.04c2.194 1.153 4.591 1.723 6.978 1.723h.057c8.269-.018 14.965-6.727 14.965-15 0-1.151-.129-2.273-.375-3.352l-8.959-52.223 38.537-37.565c4.086-3.985 5.558-9.946 3.793-15.377z" fill="#e79d26"/></g></svg>